<?xml version="1.0" standalone="no"?>
<!DOCTYPE svg PUBLIC "-//W3C//DTD SVG 20010904//EN"
 "http://www.w3.org/TR/2001/REC-SVG-20010904/DTD/svg10.dtd">
<svg version="1.0" xmlns="http://www.w3.org/2000/svg"
 width="1200.000000pt" height="1200.000000pt" viewBox="0 0 1200.000000 1200.000000"
 preserveAspectRatio="xMidYMid meet">
<metadata>
Created by potrace 1.14, written by Peter Selinger 2001-2017
</metadata>
<g transform="translate(0.000000,1200.000000) scale(0.100000,-0.100000)"
fill="#000000" stroke="none">
<path d="M5825 9554 c-6 -1 -66 -5 -135 -8 -69 -2 -138 -7 -155 -10 -82 -17
-135 -29 -180 -44 -27 -9 -53 -16 -57 -17 -3 0 -10 -3 -14 -7 -4 -5 -13 -8
-21 -8 -36 0 -249 -122 -346 -198 -73 -58 -214 -211 -269 -292 -143 -213 -216
-420 -233 -665 -4 -44 -8 -81 -10 -84 -3 -2 -193 -4 -422 -4 -230 0 -432 -4
-448 -8 -42 -11 -94 -60 -108 -101 -9 -25 -12 -371 -12 -1331 l0 -1297 -828 0
-829 0 29 -37 c15 -21 60 -85 98 -143 39 -58 72 -107 75 -110 3 -3 21 -30 42
-60 20 -30 93 -138 162 -240 109 -159 124 -186 113 -202 -6 -9 -47 -68 -89
-130 -42 -62 -99 -144 -125 -183 -27 -38 -105 -153 -175 -255 l-126 -185 827
0 826 0 1 -510 c0 -467 2 -515 18 -565 38 -113 94 -201 176 -278 46 -42 181
-109 250 -122 38 -8 678 -11 2080 -11 1738 -1 2034 1 2086 14 160 38 295 146
371 295 57 110 61 157 61 667 0 253 1 471 1 485 l1 25 885 0 c487 0 885 3 885
6 0 3 -31 50 -68 105 -181 264 -234 341 -338 495 l-113 167 159 233 c88 129
185 272 216 319 31 47 59 87 63 90 10 8 81 116 81 123 0 4 -399 8 -887 9
l-886 3 0 1294 c0 711 -2 1305 -5 1319 -5 27 -80 107 -104 111 -7 1 -208 4
-446 5 -238 2 -434 5 -436 7 -3 2 -7 40 -10 84 -3 44 -8 96 -11 115 -10 71
-15 102 -20 109 -2 4 -6 20 -9 36 -15 84 -131 326 -201 420 -70 95 -71 95
-162 187 -178 180 -366 284 -603 337 -126 28 -145 30 -355 36 -99 3 -198 7
-220 9 -23 1 -45 1 -50 0z m497 -358 c115 -25 326 -111 336 -137 2 -5 8 -9 13
-9 22 0 161 -125 234 -210 103 -121 185 -311 210 -490 13 -94 14 -130 2 -131
-16 -1 -2349 -1 -2361 0 -16 2 3 168 29 261 14 50 42 126 63 168 50 102 56
112 64 112 5 0 8 7 8 15 0 8 4 15 8 15 4 0 15 13 25 29 26 45 166 180 232 224
213 142 368 174 830 171 170 -2 250 -6 307 -18z m1798 -2516 l0 -1200 -2184 0
-2184 0 0 1200 0 1200 2184 0 2184 0 0 -1200z m-4069 -2780 c-14 -19 -28 -37
-31 -40 -3 -3 -17 -25 -31 -50 -78 -139 -94 -309 -45 -472 30 -96 70 -162 146
-239 81 -82 157 -126 260 -149 76 -18 3099 -18 3175 0 190 44 346 195 407 393
27 89 29 242 4 327 -9 30 -18 60 -19 65 -7 28 -62 125 -87 155 -16 19 -27 36
-25 40 2 3 72 5 157 5 l153 0 2 -480 c2 -339 -1 -492 -9 -518 -17 -55 -71
-113 -126 -134 -45 -17 -137 -18 -2052 -18 l-2005 0 -47 23 c-25 13 -58 38
-71 56 -56 72 -55 65 -55 583 0 263 4 480 8 483 5 3 78 5 163 5 l154 0 -26
-35z m3475 -176 c94 -75 117 -233 53 -356 -16 -32 -67 -71 -109 -83 -23 -7
-532 -10 -1550 -10 -1691 1 -1545 -5 -1608 71 -96 117 -61 339 63 395 38 18
107 19 1577 16 l1536 -2 38 -31z"/>
</g>
</svg>
